<?xml version="1.0" standalone="no"?>
<!DOCTYPE svg PUBLIC "-//W3C//DTD SVG 20010904//EN"
 "http://www.w3.org/TR/2001/REC-SVG-20010904/DTD/svg10.dtd">
<svg version="1.0" xmlns="http://www.w3.org/2000/svg"
 width="1280.000000pt" height="1280.000000pt" viewBox="0 0 1280.000000 1280.000000"
 preserveAspectRatio="xMidYMid meet">
<metadata>
Created by potrace 1.11, written by Peter Selinger 2001-2013
</metadata>
<g transform="translate(0.000000,1280.000000) scale(0.100000,-0.100000)"
fill="#000000" stroke="none">
<path d="M5815 11654 c-100 -13 -216 -39 -245 -53 -8 -5 -39 -14 -67 -21 -29
-8 -53 -17 -53 -22 0 -4 -6 -8 -13 -8 -13 0 -161 -71 -222 -107 -145 -85 -355
-284 -454 -432 -179 -268 -257 -502 -268 -804 -8 -214 11 -349 74 -536 25 -74
82 -212 93 -221 3 -3 18 -30 34 -60 28 -52 92 -149 105 -160 4 -3 22 -25 41
-50 43 -55 116 -128 195 -196 66 -56 240 -174 257 -174 5 0 22 -8 36 -18 15
-10 65 -33 112 -51 47 -18 94 -36 105 -41 44 -17 169 -47 255 -60 98 -15 355
-12 453 5 476 83 905 396 1109 808 23 45 47 89 54 97 20 24 51 134 85 300 61
300 36 578 -77 862 -37 93 -106 221 -162 303 -72 104 -209 251 -292 313 -19
15 -37 29 -40 33 -27 31 -233 147 -340 192 -241 101 -514 136 -775 101z"/>
<path d="M7506 9708 c-32 -147 -38 -168 -47 -168 -5 0 -9 -7 -9 -16 0 -16 -8
-42 -105 -324 -64 -186 -152 -369 -260 -540 -53 -85 -121 -186 -134 -199 -8
-9 -20 -29 -27 -46 -7 -16 -23 -42 -36 -57 -13 -14 -49 -57 -81 -95 -119 -142
-422 -418 -526 -479 -17 -10 -31 -22 -31 -26 0 -4 -4 -8 -9 -8 -5 0 -37 -18
-70 -40 -33 -22 -64 -40 -70 -40 -5 0 -11 -4 -13 -8 -1 -5 -30 -24 -63 -42
-308 -170 -543 -260 -891 -344 -135 -33 -393 -66 -599 -79 l-40 -2 0 -1680 0
-1680 22 -133 c57 -336 154 -638 293 -907 105 -204 144 -266 284 -455 100
-134 352 -400 460 -486 27 -21 63 -51 80 -65 17 -14 54 -41 81 -59 28 -19 55
-38 60 -43 18 -15 148 -98 220 -140 413 -241 941 -385 1465 -400 l75 -2 0
4323 c0 2377 -2 4322 -5 4322 -4 0 -14 -37 -24 -82z"/>
</g>
</svg>
