<svg width="2641" height="252" viewBox="0 0 2641 252" fill="none" xmlns="http://www.w3.org/2000/svg">
<g clip-path="url(#clip0_2_2)">
<path d="M8 229V38.6875H46.0625V229H8ZM248.555 229C248.555 218.493 252.222 209.572 259.557 202.237C267.091 194.704 276.111 190.938 286.617 190.938H438.867V152.875H248.555V38.6875H476.93C476.93 49.3926 473.163 58.4126 465.63 65.7476C458.097 73.0825 449.176 76.75 438.867 76.75H286.617V114.812H476.93V229H248.555ZM717.485 229C706.78 229 697.76 225.333 690.425 217.998C683.09 210.464 679.422 201.444 679.422 190.938H907.797C907.797 201.643 904.031 210.663 896.498 217.998C888.964 225.333 880.044 229 869.735 229H717.485ZM679.422 152.875V38.6875H717.485V152.875H679.422ZM869.735 152.875V38.6875H907.797V152.875H869.735ZM1148.35 229V76.75L1110.29 38.6875H1167.38L1300.6 171.906V38.6875H1338.67V229H1300.6L1186.42 114.812V229H1148.35ZM1541.16 229V114.812H1579.22V190.938H1712.44C1717.59 190.938 1722.05 189.153 1725.82 185.585C1729.59 181.818 1731.47 177.259 1731.47 171.906V76.75H1579.22C1568.51 76.75 1559.49 73.0825 1552.16 65.7476C1544.82 58.2144 1541.16 49.1943 1541.16 38.6875H1769.53V190.938C1769.53 201.643 1765.77 210.663 1758.23 217.998C1750.7 225.333 1741.78 229 1731.47 229H1541.16ZM2010.09 229C1999.38 229 1990.36 225.333 1983.03 217.998C1975.69 210.464 1972.02 201.444 1972.02 190.938H2200.4C2200.4 201.643 2196.63 210.663 2189.1 217.998C2181.57 225.333 2172.65 229 2162.34 229H2010.09ZM2010.09 152.875C1999.38 152.875 1990.36 149.208 1983.03 141.873C1975.69 134.339 1972.02 125.319 1972.02 114.812H2200.4C2200.4 125.518 2196.63 134.538 2189.1 141.873C2181.57 149.208 2172.65 152.875 2162.34 152.875H2010.09ZM2010.09 76.75C1999.38 76.75 1990.36 73.0825 1983.03 65.7476C1975.69 58.2144 1972.02 49.1943 1972.02 38.6875H2200.4C2200.4 49.3926 2196.63 58.4126 2189.1 65.7476C2181.57 73.0825 2172.65 76.75 2162.34 76.75H2010.09ZM2402.89 229V114.812H2574.17C2579.33 114.812 2583.79 113.028 2587.56 109.46C2591.32 105.693 2593.21 101.134 2593.21 95.7812V76.75H2440.96C2430.25 76.75 2421.23 73.0825 2413.9 65.7476C2406.56 58.2144 2402.89 49.1943 2402.89 38.6875H2631.27V114.812C2631.27 125.518 2627.5 134.538 2619.97 141.873C2612.43 149.208 2603.51 152.875 2593.21 152.875H2555.14L2631.27 229H2574.17L2498.05 152.875H2440.96V229H2402.89Z" fill="black"/>
</g>
<defs>
<clipPath id="clip0_2_2">
<rect width="2641" height="252" fill="white"/>
</clipPath>
</defs>
</svg>
