<svg width="2901" height="252" viewBox="0 0 2901 252" fill="none" xmlns="http://www.w3.org/2000/svg">
<g clip-path="url(#clip0_2_2)">
<path class="path1" d="M8 229V38.6875H46.0625V229H8ZM102.395 229C102.395 218.493 106.062 209.572 113.397 202.237C120.931 194.704 129.951 190.938 140.458 190.938H292.708V152.875H102.395V38.6875H330.77C330.77 49.3926 327.003 58.4126 319.47 65.7476C311.937 73.0825 303.016 76.75 292.708 76.75H140.458V114.812H330.77V229H102.395ZM425.165 229C414.46 229 405.44 225.333 398.105 217.998C390.77 210.464 387.103 201.444 387.103 190.938H615.478C615.478 201.643 611.711 210.663 604.178 217.998C596.645 225.333 587.724 229 577.415 229H425.165ZM387.103 152.875V38.6875H425.165V152.875H387.103ZM577.415 152.875V38.6875H615.478V152.875H577.415ZM709.872 229V76.75L671.81 38.6875H728.904L862.122 171.906V38.6875H900.185V229H862.122L747.935 114.812V229H709.872ZM956.518 229V114.812H994.58V190.938H1127.8C1132.95 190.938 1137.41 189.153 1141.18 185.585C1144.95 181.818 1146.83 177.259 1146.83 171.906V76.75H994.58C983.875 76.75 974.855 73.0825 967.52 65.7476C960.185 58.2144 956.518 49.1943 956.518 38.6875H1184.89V190.938C1184.89 201.643 1181.13 210.663 1173.59 217.998C1166.06 225.333 1157.14 229 1146.83 229H956.518ZM1279.29 229C1268.58 229 1259.56 225.333 1252.23 217.998C1244.89 210.464 1241.22 201.444 1241.22 190.938H1469.6C1469.6 201.643 1465.83 210.663 1458.3 217.998C1450.77 225.333 1441.85 229 1431.54 229H1279.29ZM1279.29 152.875C1268.58 152.875 1259.56 149.208 1252.23 141.873C1244.89 134.339 1241.22 125.319 1241.22 114.812H1469.6C1469.6 125.518 1465.83 134.538 1458.3 141.873C1450.77 149.208 1441.85 152.875 1431.54 152.875H1279.29ZM1279.29 76.75C1268.58 76.75 1259.56 73.0825 1252.23 65.7476C1244.89 58.2144 1241.22 49.1943 1241.22 38.6875H1469.6C1469.6 49.3926 1465.83 58.4126 1458.3 65.7476C1450.77 73.0825 1441.85 76.75 1431.54 76.75H1279.29ZM1525.93 229V114.812H1697.21C1702.37 114.812 1706.83 113.028 1710.6 109.46C1714.36 105.693 1716.24 101.134 1716.24 95.7812V76.75H1563.99C1553.29 76.75 1544.27 73.0825 1536.93 65.7476C1529.6 58.2144 1525.93 49.1943 1525.93 38.6875H1754.31V114.812C1754.31 125.518 1750.54 134.538 1743.01 141.873C1735.47 149.208 1726.55 152.875 1716.24 152.875H1678.18L1754.31 229H1697.21L1621.09 152.875H1563.99V229H1525.93Z" fill="black"/>
<path d="M1905.8 229V76.75H1848.7C1838 76.75 1828.98 73.0825 1821.64 65.7476C1814.31 58.2144 1810.64 49.1943 1810.64 38.6875H2039.02C2039.02 49.3926 2035.25 58.4126 2027.72 65.7476C2020.18 73.0825 2011.26 76.75 2000.95 76.75H1943.86V229H1905.8ZM2133.41 229C2122.7 229 2113.68 225.333 2106.35 217.998C2099.01 210.464 2095.35 201.444 2095.35 190.938H2323.72C2323.72 201.643 2319.96 210.663 2312.42 217.998C2304.89 225.333 2295.97 229 2285.66 229H2133.41ZM2133.41 152.875C2122.7 152.875 2113.68 149.208 2106.35 141.873C2099.01 134.339 2095.35 125.319 2095.35 114.812H2323.72C2323.72 125.518 2319.96 134.538 2312.42 141.873C2304.89 149.208 2295.97 152.875 2285.66 152.875H2133.41ZM2133.41 76.75C2122.7 76.75 2113.68 73.0825 2106.35 65.7476C2099.01 58.2144 2095.35 49.1943 2095.35 38.6875H2323.72C2323.72 49.3926 2319.96 58.4126 2312.42 65.7476C2304.89 73.0825 2295.97 76.75 2285.66 76.75H2133.41ZM2418.12 229C2407.41 229 2398.39 225.333 2391.06 217.998C2383.72 210.464 2380.05 201.444 2380.05 190.938V114.812H2418.12V171.906C2418.12 177.259 2419.9 181.818 2423.47 185.585C2427.24 189.153 2431.8 190.938 2437.15 190.938H2608.43C2608.43 201.643 2604.66 210.663 2597.13 217.998C2589.6 225.333 2580.68 229 2570.37 229H2418.12ZM2380.05 76.75V38.6875H2608.43C2608.43 49.3926 2604.66 58.4126 2597.13 65.7476C2589.6 73.0825 2580.68 76.75 2570.37 76.75H2380.05ZM2664.76 229V38.6875H2702.82V114.812H2855.07C2855.07 125.518 2851.31 134.538 2843.78 141.873C2836.24 149.208 2827.32 152.875 2817.01 152.875H2702.82V229H2664.76ZM2855.07 229V38.6875H2893.14V229H2855.07Z" fill="#5BD485"/>
</g>
<defs>
<clipPath id="clip0_2_2">
<rect width="2901" height="252" fill="white"/>
</clipPath>
</defs>
</svg>
